<mxfile host="app.diagrams.net" modified="2022-06-09T09:01:45.345Z" agent="5.0 (Windows NT 10.0; WOW64) AppleWebKit/537.36 (KHTML, like Gecko) Chrome/86.0.4240.198 Safari/537.36" etag="yA0CyxAYazHSkOnNyJO7" version="19.0.1" type="github">
  <diagram id="uT4CfY-wZlu21H7btGzF" name="Page-1">
    <mxGraphModel dx="866" dy="1762" grid="0" gridSize="10" guides="1" tooltips="1" connect="1" arrows="1" fold="1" page="1" pageScale="1" pageWidth="827" pageHeight="1169" math="0" shadow="0">
      <root>
        <mxCell id="0" />
        <mxCell id="1" parent="0" />
        <mxCell id="gjYh_zysqcQdgnvDYijd-27" value="" style="shape=table;html=1;whiteSpace=wrap;startSize=0;container=1;collapsible=0;childLayout=tableLayout;" vertex="1" parent="1">
          <mxGeometry x="174" y="164" width="203" height="170" as="geometry" />
        </mxCell>
        <mxCell id="gjYh_zysqcQdgnvDYijd-28" value="" style="shape=tableRow;horizontal=0;startSize=0;swimlaneHead=0;swimlaneBody=0;top=0;left=0;bottom=0;right=0;collapsible=0;dropTarget=0;fillColor=none;points=[[0,0.5],[1,0.5]];portConstraint=eastwest;" vertex="1" parent="gjYh_zysqcQdgnvDYijd-27">
          <mxGeometry width="203" height="56" as="geometry" />
        </mxCell>
        <mxCell id="gjYh_zysqcQdgnvDYijd-29" value="&lt;font style=&quot;font-size: 20px;&quot;&gt;2&lt;/font&gt;" style="shape=partialRectangle;html=1;whiteSpace=wrap;connectable=0;fillColor=none;top=0;left=0;bottom=0;right=0;overflow=hidden;" vertex="1" parent="gjYh_zysqcQdgnvDYijd-28">
          <mxGeometry width="67" height="56" as="geometry">
            <mxRectangle width="67" height="56" as="alternateBounds" />
          </mxGeometry>
        </mxCell>
        <mxCell id="gjYh_zysqcQdgnvDYijd-30" value="&lt;font style=&quot;font-size: 20px;&quot;&gt;1&lt;/font&gt;" style="shape=partialRectangle;html=1;whiteSpace=wrap;connectable=0;fillColor=none;top=0;left=0;bottom=0;right=0;overflow=hidden;" vertex="1" parent="gjYh_zysqcQdgnvDYijd-28">
          <mxGeometry x="67" width="74" height="56" as="geometry">
            <mxRectangle width="74" height="56" as="alternateBounds" />
          </mxGeometry>
        </mxCell>
        <mxCell id="gjYh_zysqcQdgnvDYijd-31" value="&lt;font style=&quot;font-size: 20px;&quot;&gt;2&lt;/font&gt;" style="shape=partialRectangle;html=1;whiteSpace=wrap;connectable=0;fillColor=none;top=0;left=0;bottom=0;right=0;overflow=hidden;" vertex="1" parent="gjYh_zysqcQdgnvDYijd-28">
          <mxGeometry x="141" width="62" height="56" as="geometry">
            <mxRectangle width="62" height="56" as="alternateBounds" />
          </mxGeometry>
        </mxCell>
        <mxCell id="gjYh_zysqcQdgnvDYijd-32" value="" style="shape=tableRow;horizontal=0;startSize=0;swimlaneHead=0;swimlaneBody=0;top=0;left=0;bottom=0;right=0;collapsible=0;dropTarget=0;fillColor=none;points=[[0,0.5],[1,0.5]];portConstraint=eastwest;" vertex="1" parent="gjYh_zysqcQdgnvDYijd-27">
          <mxGeometry y="56" width="203" height="58" as="geometry" />
        </mxCell>
        <mxCell id="gjYh_zysqcQdgnvDYijd-33" value="&lt;font style=&quot;font-size: 20px;&quot;&gt;1&lt;/font&gt;" style="shape=partialRectangle;html=1;whiteSpace=wrap;connectable=0;fillColor=none;top=0;left=0;bottom=0;right=0;overflow=hidden;" vertex="1" parent="gjYh_zysqcQdgnvDYijd-32">
          <mxGeometry width="67" height="58" as="geometry">
            <mxRectangle width="67" height="58" as="alternateBounds" />
          </mxGeometry>
        </mxCell>
        <mxCell id="gjYh_zysqcQdgnvDYijd-34" value="&lt;font style=&quot;font-size: 20px;&quot;&gt;0&lt;/font&gt;" style="shape=partialRectangle;html=1;whiteSpace=wrap;connectable=0;fillColor=none;top=0;left=0;bottom=0;right=0;overflow=hidden;" vertex="1" parent="gjYh_zysqcQdgnvDYijd-32">
          <mxGeometry x="67" width="74" height="58" as="geometry">
            <mxRectangle width="74" height="58" as="alternateBounds" />
          </mxGeometry>
        </mxCell>
        <mxCell id="gjYh_zysqcQdgnvDYijd-35" value="&lt;font style=&quot;font-size: 20px;&quot;&gt;1&lt;/font&gt;" style="shape=partialRectangle;html=1;whiteSpace=wrap;connectable=0;fillColor=none;top=0;left=0;bottom=0;right=0;overflow=hidden;" vertex="1" parent="gjYh_zysqcQdgnvDYijd-32">
          <mxGeometry x="141" width="62" height="58" as="geometry">
            <mxRectangle width="62" height="58" as="alternateBounds" />
          </mxGeometry>
        </mxCell>
        <mxCell id="gjYh_zysqcQdgnvDYijd-36" value="" style="shape=tableRow;horizontal=0;startSize=0;swimlaneHead=0;swimlaneBody=0;top=0;left=0;bottom=0;right=0;collapsible=0;dropTarget=0;fillColor=none;points=[[0,0.5],[1,0.5]];portConstraint=eastwest;" vertex="1" parent="gjYh_zysqcQdgnvDYijd-27">
          <mxGeometry y="114" width="203" height="56" as="geometry" />
        </mxCell>
        <mxCell id="gjYh_zysqcQdgnvDYijd-37" value="&lt;font style=&quot;font-size: 20px;&quot;&gt;2&lt;/font&gt;" style="shape=partialRectangle;html=1;whiteSpace=wrap;connectable=0;fillColor=none;top=0;left=0;bottom=0;right=0;overflow=hidden;" vertex="1" parent="gjYh_zysqcQdgnvDYijd-36">
          <mxGeometry width="67" height="56" as="geometry">
            <mxRectangle width="67" height="56" as="alternateBounds" />
          </mxGeometry>
        </mxCell>
        <mxCell id="gjYh_zysqcQdgnvDYijd-38" value="&lt;font style=&quot;font-size: 20px;&quot;&gt;1&lt;/font&gt;" style="shape=partialRectangle;html=1;whiteSpace=wrap;connectable=0;fillColor=none;top=0;left=0;bottom=0;right=0;overflow=hidden;" vertex="1" parent="gjYh_zysqcQdgnvDYijd-36">
          <mxGeometry x="67" width="74" height="56" as="geometry">
            <mxRectangle width="74" height="56" as="alternateBounds" />
          </mxGeometry>
        </mxCell>
        <mxCell id="gjYh_zysqcQdgnvDYijd-39" value="&lt;font style=&quot;font-size: 20px;&quot;&gt;2&lt;/font&gt;" style="shape=partialRectangle;html=1;whiteSpace=wrap;connectable=0;fillColor=none;top=0;left=0;bottom=0;right=0;overflow=hidden;pointerEvents=1;" vertex="1" parent="gjYh_zysqcQdgnvDYijd-36">
          <mxGeometry x="141" width="62" height="56" as="geometry">
            <mxRectangle width="62" height="56" as="alternateBounds" />
          </mxGeometry>
        </mxCell>
        <mxCell id="gjYh_zysqcQdgnvDYijd-40" value="" style="shape=curlyBracket;whiteSpace=wrap;html=1;rounded=1;flipH=1;direction=north;" vertex="1" parent="1">
          <mxGeometry x="173" y="345" width="205" height="42" as="geometry" />
        </mxCell>
        <mxCell id="gjYh_zysqcQdgnvDYijd-41" value="k=1" style="text;html=1;strokeColor=none;fillColor=none;align=center;verticalAlign=middle;whiteSpace=wrap;rounded=0;fontSize=20;" vertex="1" parent="1">
          <mxGeometry x="246" y="389" width="60" height="30" as="geometry" />
        </mxCell>
        <mxCell id="gjYh_zysqcQdgnvDYijd-42" value="" style="shape=table;html=1;whiteSpace=wrap;startSize=0;container=1;collapsible=0;childLayout=tableLayout;" vertex="1" parent="1">
          <mxGeometry x="445" y="164" width="203" height="170" as="geometry" />
        </mxCell>
        <mxCell id="gjYh_zysqcQdgnvDYijd-43" value="" style="shape=tableRow;horizontal=0;startSize=0;swimlaneHead=0;swimlaneBody=0;top=0;left=0;bottom=0;right=0;collapsible=0;dropTarget=0;fillColor=none;points=[[0,0.5],[1,0.5]];portConstraint=eastwest;" vertex="1" parent="gjYh_zysqcQdgnvDYijd-42">
          <mxGeometry width="203" height="56" as="geometry" />
        </mxCell>
        <mxCell id="gjYh_zysqcQdgnvDYijd-44" value="&lt;font style=&quot;font-size: 20px;&quot;&gt;2&lt;/font&gt;" style="shape=partialRectangle;html=1;whiteSpace=wrap;connectable=0;fillColor=none;top=0;left=0;bottom=0;right=0;overflow=hidden;" vertex="1" parent="gjYh_zysqcQdgnvDYijd-43">
          <mxGeometry width="67" height="56" as="geometry">
            <mxRectangle width="67" height="56" as="alternateBounds" />
          </mxGeometry>
        </mxCell>
        <mxCell id="gjYh_zysqcQdgnvDYijd-45" value="&lt;font style=&quot;font-size: 20px;&quot;&gt;4&lt;/font&gt;" style="shape=partialRectangle;html=1;whiteSpace=wrap;connectable=0;fillColor=none;top=0;left=0;bottom=0;right=0;overflow=hidden;" vertex="1" parent="gjYh_zysqcQdgnvDYijd-43">
          <mxGeometry x="67" width="74" height="56" as="geometry">
            <mxRectangle width="74" height="56" as="alternateBounds" />
          </mxGeometry>
        </mxCell>
        <mxCell id="gjYh_zysqcQdgnvDYijd-46" value="&lt;font style=&quot;font-size: 20px;&quot;&gt;2&lt;/font&gt;" style="shape=partialRectangle;html=1;whiteSpace=wrap;connectable=0;fillColor=none;top=0;left=0;bottom=0;right=0;overflow=hidden;" vertex="1" parent="gjYh_zysqcQdgnvDYijd-43">
          <mxGeometry x="141" width="62" height="56" as="geometry">
            <mxRectangle width="62" height="56" as="alternateBounds" />
          </mxGeometry>
        </mxCell>
        <mxCell id="gjYh_zysqcQdgnvDYijd-47" value="" style="shape=tableRow;horizontal=0;startSize=0;swimlaneHead=0;swimlaneBody=0;top=0;left=0;bottom=0;right=0;collapsible=0;dropTarget=0;fillColor=none;points=[[0,0.5],[1,0.5]];portConstraint=eastwest;" vertex="1" parent="gjYh_zysqcQdgnvDYijd-42">
          <mxGeometry y="56" width="203" height="58" as="geometry" />
        </mxCell>
        <mxCell id="gjYh_zysqcQdgnvDYijd-48" value="&lt;font style=&quot;font-size: 20px;&quot;&gt;4&lt;/font&gt;" style="shape=partialRectangle;html=1;whiteSpace=wrap;connectable=0;fillColor=none;top=0;left=0;bottom=0;right=0;overflow=hidden;" vertex="1" parent="gjYh_zysqcQdgnvDYijd-47">
          <mxGeometry width="67" height="58" as="geometry">
            <mxRectangle width="67" height="58" as="alternateBounds" />
          </mxGeometry>
        </mxCell>
        <mxCell id="gjYh_zysqcQdgnvDYijd-49" value="&lt;span style=&quot;font-size: 20px;&quot;&gt;4&lt;/span&gt;" style="shape=partialRectangle;html=1;whiteSpace=wrap;connectable=0;fillColor=none;top=0;left=0;bottom=0;right=0;overflow=hidden;" vertex="1" parent="gjYh_zysqcQdgnvDYijd-47">
          <mxGeometry x="67" width="74" height="58" as="geometry">
            <mxRectangle width="74" height="58" as="alternateBounds" />
          </mxGeometry>
        </mxCell>
        <mxCell id="gjYh_zysqcQdgnvDYijd-50" value="&lt;font style=&quot;font-size: 20px;&quot;&gt;4&lt;/font&gt;" style="shape=partialRectangle;html=1;whiteSpace=wrap;connectable=0;fillColor=none;top=0;left=0;bottom=0;right=0;overflow=hidden;" vertex="1" parent="gjYh_zysqcQdgnvDYijd-47">
          <mxGeometry x="141" width="62" height="58" as="geometry">
            <mxRectangle width="62" height="58" as="alternateBounds" />
          </mxGeometry>
        </mxCell>
        <mxCell id="gjYh_zysqcQdgnvDYijd-51" value="" style="shape=tableRow;horizontal=0;startSize=0;swimlaneHead=0;swimlaneBody=0;top=0;left=0;bottom=0;right=0;collapsible=0;dropTarget=0;fillColor=none;points=[[0,0.5],[1,0.5]];portConstraint=eastwest;" vertex="1" parent="gjYh_zysqcQdgnvDYijd-42">
          <mxGeometry y="114" width="203" height="56" as="geometry" />
        </mxCell>
        <mxCell id="gjYh_zysqcQdgnvDYijd-52" value="&lt;font style=&quot;font-size: 20px;&quot;&gt;2&lt;/font&gt;" style="shape=partialRectangle;html=1;whiteSpace=wrap;connectable=0;fillColor=none;top=0;left=0;bottom=0;right=0;overflow=hidden;" vertex="1" parent="gjYh_zysqcQdgnvDYijd-51">
          <mxGeometry width="67" height="56" as="geometry">
            <mxRectangle width="67" height="56" as="alternateBounds" />
          </mxGeometry>
        </mxCell>
        <mxCell id="gjYh_zysqcQdgnvDYijd-53" value="&lt;font style=&quot;font-size: 20px;&quot;&gt;4&lt;/font&gt;" style="shape=partialRectangle;html=1;whiteSpace=wrap;connectable=0;fillColor=none;top=0;left=0;bottom=0;right=0;overflow=hidden;" vertex="1" parent="gjYh_zysqcQdgnvDYijd-51">
          <mxGeometry x="67" width="74" height="56" as="geometry">
            <mxRectangle width="74" height="56" as="alternateBounds" />
          </mxGeometry>
        </mxCell>
        <mxCell id="gjYh_zysqcQdgnvDYijd-54" value="&lt;font style=&quot;font-size: 20px;&quot;&gt;2&lt;/font&gt;" style="shape=partialRectangle;html=1;whiteSpace=wrap;connectable=0;fillColor=none;top=0;left=0;bottom=0;right=0;overflow=hidden;pointerEvents=1;" vertex="1" parent="gjYh_zysqcQdgnvDYijd-51">
          <mxGeometry x="141" width="62" height="56" as="geometry">
            <mxRectangle width="62" height="56" as="alternateBounds" />
          </mxGeometry>
        </mxCell>
        <mxCell id="gjYh_zysqcQdgnvDYijd-55" value="" style="shape=curlyBracket;whiteSpace=wrap;html=1;rounded=1;flipH=1;direction=north;" vertex="1" parent="1">
          <mxGeometry x="444" y="345" width="205" height="42" as="geometry" />
        </mxCell>
        <mxCell id="gjYh_zysqcQdgnvDYijd-56" value="k=2" style="text;html=1;strokeColor=none;fillColor=none;align=center;verticalAlign=middle;whiteSpace=wrap;rounded=0;fontSize=20;" vertex="1" parent="1">
          <mxGeometry x="517" y="389" width="60" height="30" as="geometry" />
        </mxCell>
        <mxCell id="gjYh_zysqcQdgnvDYijd-57" value="" style="shape=table;html=1;whiteSpace=wrap;startSize=0;container=1;collapsible=0;childLayout=tableLayout;" vertex="1" parent="1">
          <mxGeometry x="708" y="164" width="203" height="170" as="geometry" />
        </mxCell>
        <mxCell id="gjYh_zysqcQdgnvDYijd-58" value="" style="shape=tableRow;horizontal=0;startSize=0;swimlaneHead=0;swimlaneBody=0;top=0;left=0;bottom=0;right=0;collapsible=0;dropTarget=0;fillColor=none;points=[[0,0.5],[1,0.5]];portConstraint=eastwest;" vertex="1" parent="gjYh_zysqcQdgnvDYijd-57">
          <mxGeometry width="203" height="56" as="geometry" />
        </mxCell>
        <mxCell id="gjYh_zysqcQdgnvDYijd-59" value="&lt;font color=&quot;#ff0000&quot; style=&quot;font-size: 20px;&quot;&gt;8&lt;/font&gt;" style="shape=partialRectangle;html=1;whiteSpace=wrap;connectable=0;fillColor=none;top=0;left=0;bottom=0;right=0;overflow=hidden;" vertex="1" parent="gjYh_zysqcQdgnvDYijd-58">
          <mxGeometry width="67" height="56" as="geometry">
            <mxRectangle width="67" height="56" as="alternateBounds" />
          </mxGeometry>
        </mxCell>
        <mxCell id="gjYh_zysqcQdgnvDYijd-60" value="&lt;span style=&quot;font-size: 20px;&quot;&gt;&lt;font color=&quot;#ff0000&quot;&gt;8&lt;/font&gt;&lt;/span&gt;" style="shape=partialRectangle;html=1;whiteSpace=wrap;connectable=0;fillColor=none;top=0;left=0;bottom=0;right=0;overflow=hidden;" vertex="1" parent="gjYh_zysqcQdgnvDYijd-58">
          <mxGeometry x="67" width="74" height="56" as="geometry">
            <mxRectangle width="74" height="56" as="alternateBounds" />
          </mxGeometry>
        </mxCell>
        <mxCell id="gjYh_zysqcQdgnvDYijd-61" value="&lt;font style=&quot;font-size: 20px;&quot;&gt;2&lt;/font&gt;" style="shape=partialRectangle;html=1;whiteSpace=wrap;connectable=0;fillColor=none;top=0;left=0;bottom=0;right=0;overflow=hidden;" vertex="1" parent="gjYh_zysqcQdgnvDYijd-58">
          <mxGeometry x="141" width="62" height="56" as="geometry">
            <mxRectangle width="62" height="56" as="alternateBounds" />
          </mxGeometry>
        </mxCell>
        <mxCell id="gjYh_zysqcQdgnvDYijd-62" value="" style="shape=tableRow;horizontal=0;startSize=0;swimlaneHead=0;swimlaneBody=0;top=0;left=0;bottom=0;right=0;collapsible=0;dropTarget=0;fillColor=none;points=[[0,0.5],[1,0.5]];portConstraint=eastwest;" vertex="1" parent="gjYh_zysqcQdgnvDYijd-57">
          <mxGeometry y="56" width="203" height="58" as="geometry" />
        </mxCell>
        <mxCell id="gjYh_zysqcQdgnvDYijd-63" value="&lt;font style=&quot;font-size: 20px;&quot;&gt;4&lt;/font&gt;" style="shape=partialRectangle;html=1;whiteSpace=wrap;connectable=0;fillColor=none;top=0;left=0;bottom=0;right=0;overflow=hidden;" vertex="1" parent="gjYh_zysqcQdgnvDYijd-62">
          <mxGeometry width="67" height="58" as="geometry">
            <mxRectangle width="67" height="58" as="alternateBounds" />
          </mxGeometry>
        </mxCell>
        <mxCell id="gjYh_zysqcQdgnvDYijd-64" value="&lt;span style=&quot;font-size: 20px;&quot;&gt;4&lt;/span&gt;" style="shape=partialRectangle;html=1;whiteSpace=wrap;connectable=0;fillColor=none;top=0;left=0;bottom=0;right=0;overflow=hidden;" vertex="1" parent="gjYh_zysqcQdgnvDYijd-62">
          <mxGeometry x="67" width="74" height="58" as="geometry">
            <mxRectangle width="74" height="58" as="alternateBounds" />
          </mxGeometry>
        </mxCell>
        <mxCell id="gjYh_zysqcQdgnvDYijd-65" value="&lt;font style=&quot;font-size: 20px;&quot;&gt;4&lt;/font&gt;" style="shape=partialRectangle;html=1;whiteSpace=wrap;connectable=0;fillColor=none;top=0;left=0;bottom=0;right=0;overflow=hidden;" vertex="1" parent="gjYh_zysqcQdgnvDYijd-62">
          <mxGeometry x="141" width="62" height="58" as="geometry">
            <mxRectangle width="62" height="58" as="alternateBounds" />
          </mxGeometry>
        </mxCell>
        <mxCell id="gjYh_zysqcQdgnvDYijd-66" value="" style="shape=tableRow;horizontal=0;startSize=0;swimlaneHead=0;swimlaneBody=0;top=0;left=0;bottom=0;right=0;collapsible=0;dropTarget=0;fillColor=none;points=[[0,0.5],[1,0.5]];portConstraint=eastwest;" vertex="1" parent="gjYh_zysqcQdgnvDYijd-57">
          <mxGeometry y="114" width="203" height="56" as="geometry" />
        </mxCell>
        <mxCell id="gjYh_zysqcQdgnvDYijd-67" value="&lt;font style=&quot;font-size: 20px;&quot;&gt;2&lt;/font&gt;" style="shape=partialRectangle;html=1;whiteSpace=wrap;connectable=0;fillColor=none;top=0;left=0;bottom=0;right=0;overflow=hidden;" vertex="1" parent="gjYh_zysqcQdgnvDYijd-66">
          <mxGeometry width="67" height="56" as="geometry">
            <mxRectangle width="67" height="56" as="alternateBounds" />
          </mxGeometry>
        </mxCell>
        <mxCell id="gjYh_zysqcQdgnvDYijd-68" value="&lt;font style=&quot;font-size: 20px;&quot;&gt;4&lt;/font&gt;" style="shape=partialRectangle;html=1;whiteSpace=wrap;connectable=0;fillColor=none;top=0;left=0;bottom=0;right=0;overflow=hidden;" vertex="1" parent="gjYh_zysqcQdgnvDYijd-66">
          <mxGeometry x="67" width="74" height="56" as="geometry">
            <mxRectangle width="74" height="56" as="alternateBounds" />
          </mxGeometry>
        </mxCell>
        <mxCell id="gjYh_zysqcQdgnvDYijd-69" value="&lt;font style=&quot;font-size: 20px;&quot;&gt;2&lt;/font&gt;" style="shape=partialRectangle;html=1;whiteSpace=wrap;connectable=0;fillColor=none;top=0;left=0;bottom=0;right=0;overflow=hidden;pointerEvents=1;" vertex="1" parent="gjYh_zysqcQdgnvDYijd-66">
          <mxGeometry x="141" width="62" height="56" as="geometry">
            <mxRectangle width="62" height="56" as="alternateBounds" />
          </mxGeometry>
        </mxCell>
        <mxCell id="gjYh_zysqcQdgnvDYijd-70" value="" style="shape=curlyBracket;whiteSpace=wrap;html=1;rounded=1;flipH=1;direction=north;" vertex="1" parent="1">
          <mxGeometry x="711" y="345" width="205" height="42" as="geometry" />
        </mxCell>
        <mxCell id="gjYh_zysqcQdgnvDYijd-71" value="" style="shape=table;html=1;whiteSpace=wrap;startSize=0;container=1;collapsible=0;childLayout=tableLayout;" vertex="1" parent="1">
          <mxGeometry x="445" y="-46" width="203" height="170" as="geometry" />
        </mxCell>
        <mxCell id="gjYh_zysqcQdgnvDYijd-72" value="" style="shape=tableRow;horizontal=0;startSize=0;swimlaneHead=0;swimlaneBody=0;top=0;left=0;bottom=0;right=0;collapsible=0;dropTarget=0;fillColor=none;points=[[0,0.5],[1,0.5]];portConstraint=eastwest;" vertex="1" parent="gjYh_zysqcQdgnvDYijd-71">
          <mxGeometry width="203" height="56" as="geometry" />
        </mxCell>
        <mxCell id="gjYh_zysqcQdgnvDYijd-73" value="&lt;font color=&quot;#ff0000&quot; style=&quot;font-size: 20px;&quot;&gt;4&lt;/font&gt;" style="shape=partialRectangle;html=1;whiteSpace=wrap;connectable=0;fillColor=none;top=0;left=0;bottom=0;right=0;overflow=hidden;" vertex="1" parent="gjYh_zysqcQdgnvDYijd-72">
          <mxGeometry width="67" height="56" as="geometry">
            <mxRectangle width="67" height="56" as="alternateBounds" />
          </mxGeometry>
        </mxCell>
        <mxCell id="gjYh_zysqcQdgnvDYijd-74" value="&lt;font color=&quot;#ff0000&quot; style=&quot;font-size: 20px;&quot;&gt;5&lt;/font&gt;" style="shape=partialRectangle;html=1;whiteSpace=wrap;connectable=0;fillColor=none;top=0;left=0;bottom=0;right=0;overflow=hidden;" vertex="1" parent="gjYh_zysqcQdgnvDYijd-72">
          <mxGeometry x="67" width="74" height="56" as="geometry">
            <mxRectangle width="74" height="56" as="alternateBounds" />
          </mxGeometry>
        </mxCell>
        <mxCell id="gjYh_zysqcQdgnvDYijd-75" value="&lt;font style=&quot;font-size: 20px;&quot;&gt;2&lt;/font&gt;" style="shape=partialRectangle;html=1;whiteSpace=wrap;connectable=0;fillColor=none;top=0;left=0;bottom=0;right=0;overflow=hidden;" vertex="1" parent="gjYh_zysqcQdgnvDYijd-72">
          <mxGeometry x="141" width="62" height="56" as="geometry">
            <mxRectangle width="62" height="56" as="alternateBounds" />
          </mxGeometry>
        </mxCell>
        <mxCell id="gjYh_zysqcQdgnvDYijd-76" value="" style="shape=tableRow;horizontal=0;startSize=0;swimlaneHead=0;swimlaneBody=0;top=0;left=0;bottom=0;right=0;collapsible=0;dropTarget=0;fillColor=none;points=[[0,0.5],[1,0.5]];portConstraint=eastwest;" vertex="1" parent="gjYh_zysqcQdgnvDYijd-71">
          <mxGeometry y="56" width="203" height="58" as="geometry" />
        </mxCell>
        <mxCell id="gjYh_zysqcQdgnvDYijd-77" value="&lt;font color=&quot;#ff0000&quot; style=&quot;font-size: 20px;&quot;&gt;5&lt;/font&gt;" style="shape=partialRectangle;html=1;whiteSpace=wrap;connectable=0;fillColor=none;top=0;left=0;bottom=0;right=0;overflow=hidden;" vertex="1" parent="gjYh_zysqcQdgnvDYijd-76">
          <mxGeometry width="67" height="58" as="geometry">
            <mxRectangle width="67" height="58" as="alternateBounds" />
          </mxGeometry>
        </mxCell>
        <mxCell id="gjYh_zysqcQdgnvDYijd-78" value="&lt;span style=&quot;font-size: 20px;&quot;&gt;&lt;font color=&quot;#ff0000&quot;&gt;4&lt;/font&gt;&lt;/span&gt;" style="shape=partialRectangle;html=1;whiteSpace=wrap;connectable=0;fillColor=none;top=0;left=0;bottom=0;right=0;overflow=hidden;" vertex="1" parent="gjYh_zysqcQdgnvDYijd-76">
          <mxGeometry x="67" width="74" height="58" as="geometry">
            <mxRectangle width="74" height="58" as="alternateBounds" />
          </mxGeometry>
        </mxCell>
        <mxCell id="gjYh_zysqcQdgnvDYijd-79" value="&lt;font style=&quot;font-size: 20px;&quot;&gt;4&lt;/font&gt;" style="shape=partialRectangle;html=1;whiteSpace=wrap;connectable=0;fillColor=none;top=0;left=0;bottom=0;right=0;overflow=hidden;" vertex="1" parent="gjYh_zysqcQdgnvDYijd-76">
          <mxGeometry x="141" width="62" height="58" as="geometry">
            <mxRectangle width="62" height="58" as="alternateBounds" />
          </mxGeometry>
        </mxCell>
        <mxCell id="gjYh_zysqcQdgnvDYijd-80" value="" style="shape=tableRow;horizontal=0;startSize=0;swimlaneHead=0;swimlaneBody=0;top=0;left=0;bottom=0;right=0;collapsible=0;dropTarget=0;fillColor=none;points=[[0,0.5],[1,0.5]];portConstraint=eastwest;" vertex="1" parent="gjYh_zysqcQdgnvDYijd-71">
          <mxGeometry y="114" width="203" height="56" as="geometry" />
        </mxCell>
        <mxCell id="gjYh_zysqcQdgnvDYijd-81" value="&lt;font style=&quot;font-size: 20px;&quot;&gt;2&lt;/font&gt;" style="shape=partialRectangle;html=1;whiteSpace=wrap;connectable=0;fillColor=none;top=0;left=0;bottom=0;right=0;overflow=hidden;" vertex="1" parent="gjYh_zysqcQdgnvDYijd-80">
          <mxGeometry width="67" height="56" as="geometry">
            <mxRectangle width="67" height="56" as="alternateBounds" />
          </mxGeometry>
        </mxCell>
        <mxCell id="gjYh_zysqcQdgnvDYijd-82" value="&lt;font style=&quot;font-size: 20px;&quot;&gt;4&lt;/font&gt;" style="shape=partialRectangle;html=1;whiteSpace=wrap;connectable=0;fillColor=none;top=0;left=0;bottom=0;right=0;overflow=hidden;" vertex="1" parent="gjYh_zysqcQdgnvDYijd-80">
          <mxGeometry x="67" width="74" height="56" as="geometry">
            <mxRectangle width="74" height="56" as="alternateBounds" />
          </mxGeometry>
        </mxCell>
        <mxCell id="gjYh_zysqcQdgnvDYijd-83" value="&lt;font style=&quot;font-size: 20px;&quot;&gt;2&lt;/font&gt;" style="shape=partialRectangle;html=1;whiteSpace=wrap;connectable=0;fillColor=none;top=0;left=0;bottom=0;right=0;overflow=hidden;pointerEvents=1;" vertex="1" parent="gjYh_zysqcQdgnvDYijd-80">
          <mxGeometry x="141" width="62" height="56" as="geometry">
            <mxRectangle width="62" height="56" as="alternateBounds" />
          </mxGeometry>
        </mxCell>
      </root>
    </mxGraphModel>
  </diagram>
</mxfile>
